<svg width="32" height="32" viewBox="0 0 32 32" fill="none" xmlns="http://www.w3.org/2000/svg">
<path fill-rule="evenodd" clip-rule="evenodd" d="M16 5C9.92487 5 5 9.92487 5 16C5 22.0751 9.92487 27 16 27C22.0751 27 27 22.0751 27 16C27 9.92487 22.0751 5 16 5ZM3 16C3 8.8203 8.8203 3 16 3C23.1797 3 29 8.8203 29 16C29 23.1797 23.1797 29 16 29C8.8203 29 3 23.1797 3 16Z" fill="black"/>
<path fill-rule="evenodd" clip-rule="evenodd" d="M15.9446 11.0553C16.3351 11.4459 16.3351 12.079 15.9446 12.4696L12.4142 16L15.9446 19.5303C16.3351 19.9209 16.3351 20.554 15.9446 20.9446C15.5541 21.3351 14.9209 21.3351 14.5304 20.9446L10.2929 16.7071C10.1054 16.5195 10 16.2652 10 16C10 15.7347 10.1054 15.4804 10.2929 15.2928L14.5304 11.0553C14.9209 10.6648 15.5541 10.6648 15.9446 11.0553Z" fill="black"/>
<path fill-rule="evenodd" clip-rule="evenodd" d="M10 16C10 15.4477 10.4477 15 11 15H21C21.5523 15 22 15.4477 22 16C22 16.5523 21.5523 17 21 17H11C10.4477 17 10 16.5523 10 16Z" fill="black"/>
</svg>
