<svg width="82" height="82" viewBox="0 0 82 82" fill="none" xmlns="http://www.w3.org/2000/svg">
<g filter="url(#filter0_d_18_175)">
<path d="M61.2184 18.2968C60.4993 17.3098 59.7095 16.3764 58.8551 15.5039C58.7943 15.4427 58.7367 15.382 58.676 15.3208C55.9753 12.6175 52.6913 10.5689 49.0757 9.33252V42.1258C49.0758 43.2251 48.8593 44.3136 48.4386 45.3291C48.018 46.3447 47.4015 47.2675 46.6242 48.0447C45.8469 48.8222 44.9241 49.4388 43.9085 49.8593C42.8929 50.2799 41.8044 50.4964 40.7051 50.4964H35.7153V57.4394C37.4521 57.8098 39.2231 57.9968 40.999 57.9968C45.6105 57.9972 50.1323 56.7222 54.0643 54.3127C57.9963 51.9032 61.1849 48.4526 63.2777 44.3435C65.3704 40.2342 66.2856 35.6261 65.9223 31.0289C65.559 26.4317 63.9309 22.0247 61.2184 18.2952V18.2968Z" fill="#A899F1"/>
<path d="M40.999 8C36.3877 8.00044 31.8662 9.27622 27.9348 11.6863C24.0034 14.0963 20.8151 17.5467 18.7225 21.6559C16.6299 25.7652 15.7145 30.3731 16.0776 34.9701C16.4408 39.5671 18.0682 43.9742 20.78 47.7039C21.5008 48.6905 22.2918 49.6239 23.1469 50.4965C23.2057 50.5556 23.2633 50.6148 23.3221 50.6779C26.0222 53.3809 29.3052 55.4299 32.9195 56.6678V23.8714C32.9205 21.6514 33.803 19.5228 35.373 17.9534C36.9431 16.384 39.0722 15.5023 41.2921 15.5023H46.282V8.55938C44.5456 8.18747 42.7748 7.99997 40.999 8Z" fill="#3818D9"/>
</g>
<defs>
<filter id="filter0_d_18_175" x="0" y="0" width="82" height="81.9968" filterUnits="userSpaceOnUse" color-interpolation-filters="sRGB">
<feFlood flood-opacity="0" result="BackgroundImageFix"/>
<feColorMatrix in="SourceAlpha" type="matrix" values="0 0 0 0 0 0 0 0 0 0 0 0 0 0 0 0 0 0 127 0" result="hardAlpha"/>
<feOffset dy="8"/>
<feGaussianBlur stdDeviation="8"/>
<feComposite in2="hardAlpha" operator="out"/>
<feColorMatrix type="matrix" values="0 0 0 0 0 0 0 0 0 0 0 0 0 0 0 0 0 0 0.08 0"/>
<feBlend mode="normal" in2="BackgroundImageFix" result="effect1_dropShadow_18_175"/>
<feBlend mode="normal" in="SourceGraphic" in2="effect1_dropShadow_18_175" result="shape"/>
</filter>
</defs>
</svg>
