<svg width="32" height="32" viewBox="0 0 32 32" fill="none" xmlns="http://www.w3.org/2000/svg">
<path d="M19.2001 20.187V19.9285M19.1994 16.1831V15.9247M19.1994 12.1963V11.9379M6.68245 4.61304H16.0015C16.0544 6.49979 17.6005 8.01304 19.5001 8.01304C21.3996 8.01304 22.9458 6.49979 22.9987 4.61304H25.3177C28.1246 4.61304 30.4001 6.88848 30.4001 9.69539V22.3046C30.4001 25.1115 28.1246 27.387 25.3177 27.387H22.9987C22.9458 25.5002 21.3996 23.987 19.5001 23.987C17.6005 23.987 16.0544 25.5002 16.0015 27.387H6.68247C3.87556 27.387 1.60012 25.1115 1.60012 22.3046L1.6001 9.69539C1.6001 6.88848 3.87554 4.61304 6.68245 4.61304Z" stroke="black" stroke-width="2" stroke-linecap="round" stroke-linejoin="round"/>
</svg>
